<svg viewBox="0 0 64 64" xmlns="http://www.w3.org/2000/svg">
  <defs>
    <linearGradient id="waveGradient" x1="0%" y1="0%" x2="100%" y2="100%">
      <stop offset="0%" style="stop-color:#3b82f6;stop-opacity:1" />
      <stop offset="50%" style="stop-color:#1d4ed8;stop-opacity:1" />
      <stop offset="100%" style="stop-color:#1e40af;stop-opacity:1" />
    </linearGradient>
    <linearGradient id="aiGradient" x1="0%" y1="0%" x2="100%" y2="100%">
      <stop offset="0%" style="stop-color:#06b6d4;stop-opacity:1" />
      <stop offset="100%" style="stop-color:#0891b2;stop-opacity:1" />
    </linearGradient>
  </defs>
  
  <!-- Background circle -->
  <circle cx="32" cy="32" r="30" fill="#f8fafc" stroke="#e2e8f0" stroke-width="2"/>
  
  <!-- Wave pattern representing "파도" (wave) -->
  <path d="M8 28 Q16 20, 24 28 T40 28 T56 28" stroke="url(#waveGradient)" stroke-width="3" fill="none" opacity="0.8"/>
  <path d="M8 34 Q16 26, 24 34 T40 34 T56 34" stroke="url(#waveGradient)" stroke-width="3" fill="none" opacity="0.6"/>
  <path d="M8 40 Q16 32, 24 40 T40 40 T56 40" stroke="url(#waveGradient)" stroke-width="3" fill="none" opacity="0.4"/>
  
  <!-- AI circuit/network pattern -->
  <circle cx="20" cy="18" r="3" fill="url(#aiGradient)"/>
  <circle cx="32" cy="14" r="2.5" fill="url(#aiGradient)"/>
  <circle cx="44" cy="18" r="3" fill="url(#aiGradient)"/>
  <circle cx="26" cy="24" r="2" fill="url(#aiGradient)"/>
  <circle cx="38" cy="24" r="2" fill="url(#aiGradient)"/>
  
  <!-- Connecting lines for AI network -->
  <line x1="20" y1="18" x2="26" y2="24" stroke="url(#aiGradient)" stroke-width="1.5" opacity="0.7"/>
  <line x1="32" y1="14" x2="26" y2="24" stroke="url(#aiGradient)" stroke-width="1.5" opacity="0.7"/>
  <line x1="32" y1="14" x2="38" y2="24" stroke="url(#aiGradient)" stroke-width="1.5" opacity="0.7"/>
  <line x1="44" y1="18" x2="38" y2="24" stroke="url(#aiGradient)" stroke-width="1.5" opacity="0.7"/>
  <line x1="26" y1="24" x2="38" y2="24" stroke="url(#aiGradient)" stroke-width="1.5" opacity="0.7"/>
  
  <!-- Forward arrow representing "나아가기" (moving forward) -->
  <path d="M30 48 L34 48 L36 46 L34 44 L30 44 L32 46 Z" fill="url(#aiGradient)" opacity="0.9"/>
  <path d="M36 46 L42 46 L44 48 L42 50 L36 50 L38 48 Z" fill="url(#waveGradient)" opacity="0.9"/>
</svg>